<?xml version="1.0" encoding="UTF-8" standalone="no"?>
<!-- Created with Inkscape (http://www.inkscape.org/) -->

<svg
   xmlns:dc="http://purl.org/dc/elements/1.1/"
   xmlns:cc="http://creativecommons.org/ns#"
   xmlns:rdf="http://www.w3.org/1999/02/22-rdf-syntax-ns#"
   xmlns:svg="http://www.w3.org/2000/svg"
   xmlns="http://www.w3.org/2000/svg"
   xmlns:xlink="http://www.w3.org/1999/xlink"
   xmlns:sodipodi="http://sodipodi.sourceforge.net/DTD/sodipodi-0.dtd"
   xmlns:inkscape="http://www.inkscape.org/namespaces/inkscape"
   width="128"
   height="128"
   id="svg2"
   version="1.1"
   inkscape:version="0.48.2 r9819"
   sodipodi:docname="icon.svg"
   inkscape:export-filename="/home/stefan/Programmieren/c++/texworks/github/stloeffler/TeXworks/icons/logo.png"
   inkscape:export-xdpi="360.07999"
   inkscape:export-ydpi="360.07999">
  <defs
     id="defs4">
    <linearGradient
       id="linearGradient3880">
      <stop
         id="stop3882"
         offset="0"
         style="stop-color:#e00000;stop-opacity:1;" />
      <stop
         style="stop-color:#ff1919;stop-opacity:1;"
         offset="0.5719102"
         id="stop3884" />
      <stop
         id="stop3886"
         offset="0.57981706"
         style="stop-color:#e90d0d;stop-opacity:1;" />
      <stop
         id="stop3888"
         offset="1"
         style="stop-color:#cc0000;stop-opacity:1;" />
    </linearGradient>
    <linearGradient
       id="linearGradient3843">
      <stop
         style="stop-color:#d8d8d8;stop-opacity:1;"
         offset="0"
         id="stop3845" />
      <stop
         style="stop-color:#b6b7bd;stop-opacity:1;"
         offset="1"
         id="stop3847" />
    </linearGradient>
    <linearGradient
       id="linearGradient3802">
      <stop
         style="stop-color:#e00000;stop-opacity:1;"
         offset="0"
         id="stop3804" />
      <stop
         id="stop3810"
         offset="0.43203011"
         style="stop-color:#ff1919;stop-opacity:1;" />
      <stop
         style="stop-color:#e90d0d;stop-opacity:1;"
         offset="0.43970007"
         id="stop3812" />
      <stop
         style="stop-color:#cc0000;stop-opacity:1;"
         offset="1"
         id="stop3806" />
    </linearGradient>
    <linearGradient
       inkscape:collect="always"
       xlink:href="#linearGradient3802"
       id="linearGradient3808"
       x1="442.08109"
       y1="542.19116"
       x2="446.52386"
       y2="519.7262"
       gradientUnits="userSpaceOnUse" />
    <linearGradient
       inkscape:collect="always"
       xlink:href="#linearGradient3843"
       id="linearGradient3849"
       x1="440.18622"
       y1="535.29889"
       x2="440.18622"
       y2="515.89917"
       gradientUnits="userSpaceOnUse"
       gradientTransform="matrix(0.90313917,0,0,0.90313917,42.636804,51.424491)" />
    <linearGradient
       inkscape:collect="always"
       xlink:href="#linearGradient3843"
       id="linearGradient3857"
       x1="440.1875"
       y1="553.27563"
       x2="440.1875"
       y2="532.27484"
       gradientUnits="userSpaceOnUse"
       gradientTransform="matrix(0.90313917,0,0,0.90313917,42.636804,51.424491)" />
    <linearGradient
       inkscape:collect="always"
       xlink:href="#linearGradient3843"
       id="linearGradient3874"
       gradientUnits="userSpaceOnUse"
       gradientTransform="matrix(0.90313917,0,0,0.90313917,42.636804,51.424491)"
       x1="440.18622"
       y1="535.29889"
       x2="440.18622"
       y2="515.89917" />
    <linearGradient
       inkscape:collect="always"
       xlink:href="#linearGradient3843"
       id="linearGradient3876"
       gradientUnits="userSpaceOnUse"
       gradientTransform="matrix(0.90313917,0,0,0.90313917,42.636804,51.424491)"
       x1="440.1875"
       y1="553.27563"
       x2="440.1875"
       y2="532.27484" />
    <linearGradient
       inkscape:collect="always"
       xlink:href="#linearGradient3880"
       id="linearGradient3878"
       gradientUnits="userSpaceOnUse"
       x1="444.29788"
       y1="542.92236"
       x2="446.49133"
       y2="519.7796" />
  </defs>
  <sodipodi:namedview
     id="base"
     pagecolor="#ffffff"
     bordercolor="#666666"
     borderopacity="1.0"
     inkscape:pageopacity="0.0"
     inkscape:pageshadow="2"
     inkscape:zoom="1.979899"
     inkscape:cx="111.21628"
     inkscape:cy="60.759203"
     inkscape:document-units="px"
     inkscape:current-layer="g3859"
     showgrid="false"
     inkscape:window-width="1280"
     inkscape:window-height="696"
     inkscape:window-x="0"
     inkscape:window-y="24"
     inkscape:window-maximized="1"
     fit-margin-top="0"
     fit-margin-left="0"
     fit-margin-right="0"
     fit-margin-bottom="0" />
  <metadata
     id="metadata7">
    <rdf:RDF>
      <cc:Work
         rdf:about="">
        <dc:format>image/svg+xml</dc:format>
        <dc:type
           rdf:resource="http://purl.org/dc/dcmitype/StillImage" />
        <dc:title></dc:title>
      </cc:Work>
    </rdf:RDF>
  </metadata>
  <g
     inkscape:label="Ebene 1"
     inkscape:groupmode="layer"
     id="layer1"
     transform="translate(-425.57733,-417.50441)">
    <g
       style="font-size:20px;font-style:italic;font-variant:normal;font-weight:normal;font-stretch:normal;line-height:125%;letter-spacing:0px;word-spacing:0px;fill:#000000;fill-opacity:1;stroke:none;font-family:FreeSerif;-inkscape-font-specification:FreeSerif Italic"
       id="text3016">
      <g
         id="g3859"
         transform="matrix(4.3751318,0,0,4.3751318,-1436.3147,-1841.2667)">
        <rect
           ry="1.3114432"
           y="517.2265"
           x="426.50159"
           height="27.369251"
           width="27.369251"
           id="rect3027"
           style="fill:url(#linearGradient3874);fill-opacity:1;stroke:none" />
        <path
           sodipodi:nodetypes="cssssczc"
           inkscape:connector-curvature="0"
           id="rect3835"
           d="m 426.49917,532.67672 0,10.61994 c 0,0.72654 0.59995,1.29826 1.32649,1.29826 l 24.72344,0 c 0.72653,0 1.32648,-0.57172 1.32648,-1.29826 l 0,-10.13612 c -4.78793,0.0847 -8.30133,-0.3243 -13.86561,-1.67323 -5.56427,-1.34892 -10.1078,-1.12638 -13.5108,1.18941 z"
           style="fill:url(#linearGradient3876);fill-opacity:1;stroke:none" />
        <g
           id="g3029">
          <path
             d="m 431.08807,523.12149 -0.66,0 -0.04,-0.3 c 2.05333,-0.29332 3.09333,-0.43999 3.12,-0.44 0.0667,10e-6 0.1,0.0267 0.1,0.08 l -0.64,2.18 c 0.58666,-0.81332 1.13999,-1.39332 1.66,-1.74 0.51999,-0.34666 1.10666,-0.51999 1.76,-0.52 0.70665,10e-6 1.26665,0.22668 1.68,0.68 0.41332,0.44001 0.61999,1.04668 0.62,1.82 -10e-6,1.58667 -0.64001,3.07334 -1.92,4.46 -1.26668,1.38667 -2.62668,2.08 -4.08,2.08 -0.44001,0 -0.88001,-0.11333 -1.32,-0.34 -0.49334,1.82667 -0.74001,2.93333 -0.74,3.32 -10e-6,0.4 0.42666,0.6 1.28,0.6 l 0,0.3 -4.1,0 0,-0.32 c 0.17333,0 0.31333,-0.0133 0.42,-0.04 0.10666,-0.0133 0.21333,-0.0533 0.32,-0.12 0.10666,-0.0533 0.18666,-0.12 0.24,-0.2 0.0533,-0.0667 0.12,-0.18667 0.2,-0.36 0.08,-0.16 0.14666,-0.32667 0.2,-0.5 0.04,-0.16 0.1,-0.4 0.18,-0.72 0.08,-0.32 0.15333,-0.64 0.22,-0.96 0.08,-0.30667 0.18666,-0.71333 0.32,-1.22 0.13333,-0.52 0.26666,-1.03333 0.4,-1.54 0.94666,-3.57333 1.41999,-5.45999 1.42,-5.66 -10e-6,-0.11999 -0.0733,-0.23999 -0.22,-0.36 -0.14667,-0.11999 -0.28667,-0.17999 -0.42,-0.18 m 5.8,1.84 c -1e-5,-1.14666 -0.44001,-1.71999 -1.32,-1.72 -0.49334,10e-6 -0.99334,0.22001 -1.5,0.66 -0.49334,0.42668 -0.86667,0.96667 -1.12,1.62 -0.29334,0.74667 -0.58667,1.64667 -0.88,2.7 -0.28001,1.05334 -0.42001,1.74667 -0.42,2.08 -1e-5,0.21334 0.0867,0.39334 0.26,0.54 0.18666,0.13334 0.41999,0.2 0.7,0.2 0.79999,0 1.53999,-0.36 2.22,-1.08 0.69332,-0.72 1.20666,-1.54 1.54,-2.46 0.34666,-0.91999 0.51999,-1.76666 0.52,-2.54"
             id="path3021"
             inkscape:connector-curvature="0" />
          <path
             d="m 440.85042,537.28506 0.24,0.2 c -1.08,1.52 -2.05334,2.28 -2.92,2.28 -0.25334,0 -0.46,-0.0867 -0.62,-0.26 -0.14667,-0.16 -0.22,-0.37333 -0.22,-0.64 0,-0.38666 0.0867,-0.98 0.26,-1.78 -0.68,1 -1.28,1.69334 -1.8,2.08 -0.52,0.37333 -1.12,0.56 -1.8,0.56 -0.65333,0 -1.16666,-0.2 -1.54,-0.6 -0.37333,-0.41333 -0.56,-0.97333 -0.56,-1.68 0,-0.97333 0.3,-1.99333 0.9,-3.06 0.61334,-1.06666 1.38,-1.94666 2.3,-2.64 0.92,-0.70666 1.8,-1.05999 2.64,-1.06 0.38666,10e-6 0.68,0.0933 0.88,0.28 0.2,0.17334 0.34,0.46668 0.42,0.88 l 0.88,-3.28 c 0.2,-0.73332 0.29999,-1.19999 0.3,-1.4 -10e-6,-0.21332 -0.0733,-0.34665 -0.22,-0.4 -0.13334,-0.0667 -0.47334,-0.10665 -1.02,-0.12 l 0,-0.34 c 1.02666,-0.0933 2.04666,-0.24665 3.06,-0.46 l 0.1,0.1 c -0.89334,3.52001 -1.55334,6.00001 -1.98,7.44 -0.86667,2.89334 -1.3,4.53334 -1.3,4.92 0,0.10667 0.0333,0.2 0.1,0.28 0.08,0.08 0.16666,0.12 0.26,0.12 0.17333,0 0.35333,-0.08 0.54,-0.24 0.2,-0.17333 0.56666,-0.56666 1.1,-1.18 m -2.14,-5 c 0,-0.75999 -0.32667,-1.13999 -0.98,-1.14 -0.6,1e-5 -1.22667,0.35334 -1.88,1.06 -0.65333,0.69334 -1.18667,1.54001 -1.6,2.54 -0.41333,0.98667 -0.62,1.88667 -0.62,2.7 0,0.38667 0.10667,0.70667 0.32,0.96 0.21333,0.24 0.49333,0.36 0.84,0.36 0.6,0 1.20667,-0.32666 1.82,-0.98 0.61333,-0.65333 1.11333,-1.48666 1.5,-2.5 0.4,-1.01333 0.6,-2.01333 0.6,-3"
             id="path3023"
             inkscape:connector-curvature="0" />
          <path
             d="m 439.51821,540.88685 c 0,0.14057 -0.0352,0.27235 -0.10545,0.39534 -0.0879,0.14055 -0.13178,0.24598 -0.13178,0.31627 0,0.28113 0.1757,0.4217 0.52711,0.4217 1.12453,0 1.97671,-1.42322 2.55653,-4.26966 l 2.31932,-11.06949 -2.37202,0 0.18448,-0.84339 2.42475,0 c 0.22842,-0.7204 0.42169,-1.31779 0.57983,-1.79221 0.17571,-0.47439 0.4217,-1.04543 0.73797,-1.71314 0.33384,-0.66766 0.67646,-1.20357 1.02788,-1.6077 0.3514,-0.40411 0.79066,-0.74674 1.31779,-1.02789 0.52711,-0.29867 1.09816,-0.44803 1.71314,-0.44805 0.6501,2e-5 1.186,0.16694 1.60771,0.50077 0.43925,0.31628 0.65889,0.7204 0.6589,1.21237 -10e-6,0.28114 -0.11425,0.52713 -0.34263,0.73797 -0.21086,0.21086 -0.46562,0.31628 -0.76432,0.31627 -0.29872,10e-6 -0.53592,-0.0966 -0.71161,-0.28992 -0.17571,-0.19326 -0.26357,-0.44804 -0.26356,-0.76432 -1e-5,-0.15813 0.0439,-0.32504 0.13178,-0.50077 0.0879,-0.17568 0.13178,-0.28111 0.13178,-0.31627 -1e-5,-0.21084 -0.1933,-0.31626 -0.57983,-0.31627 -0.73798,1e-5 -1.36173,0.48321 -1.87127,1.44958 -0.50955,0.96641 -0.9576,2.48626 -1.34416,4.55958 l 2.84644,0 -0.15813,0.84339 -2.87279,0 -1.89763,8.43389 c -0.5447,2.42475 -1.26509,4.26967 -2.16119,5.53474 -0.8961,1.28266 -1.93277,1.92399 -3.11,1.92399 -0.57983,0 -1.0718,-0.15813 -1.47593,-0.4744 -0.40413,-0.31628 -0.60619,-0.69405 -0.60619,-1.13331 0,-0.29871 0.0966,-0.55348 0.28992,-0.76433 0.1757,-0.21084 0.40413,-0.31627 0.68525,-0.31627 0.28113,0 0.52712,0.0966 0.73797,0.28992 0.19328,0.19328 0.28992,0.43049 0.28992,0.71161"
             id="path3025"
             inkscape:connector-curvature="0"
             style="fill:url(#linearGradient3878);fill-opacity:1" />
        </g>
        <rect
           style="fill:none;stroke:#081a36;stroke-width:0.99999994;stroke-opacity:1"
           id="rect3833"
           width="28.256262"
           height="28.256262"
           x="426.05811"
           y="516.78296"
           ry="1.7369648" />
      </g>
    </g>
  </g>
</svg>
