<?xml version="1.0" encoding="UTF-8" standalone="no"?>
<!-- Created with Inkscape (http://www.inkscape.org/) -->

<svg
   xmlns:dc="http://purl.org/dc/elements/1.1/"
   xmlns:cc="http://creativecommons.org/ns#"
   xmlns:rdf="http://www.w3.org/1999/02/22-rdf-syntax-ns#"
   xmlns:svg="http://www.w3.org/2000/svg"
   xmlns="http://www.w3.org/2000/svg"
   xmlns:sodipodi="http://sodipodi.sourceforge.net/DTD/sodipodi-0.dtd"
   xmlns:inkscape="http://www.inkscape.org/namespaces/inkscape"
   width="48"
   height="48"
   id="svg3083"
   version="1.1"
   inkscape:version="0.92.4 (5da689c313, 2019-01-14)"
   sodipodi:docname="hand (copy).svg">
  <defs
     id="defs3085" />
  <sodipodi:namedview
     id="base"
     pagecolor="#ffffff"
     bordercolor="#666666"
     borderopacity="1.0"
     inkscape:pageopacity="0.0"
     inkscape:pageshadow="2"
     inkscape:zoom="4.8207366"
     inkscape:cx="4.5320852"
     inkscape:cy="-16.285653"
     inkscape:document-units="px"
     inkscape:current-layer="layer1"
     showgrid="false"
     inkscape:window-width="1850"
     inkscape:window-height="1016"
     inkscape:window-x="70"
     inkscape:window-y="27"
     inkscape:window-maximized="1"
     fit-margin-top="0"
     fit-margin-left="0"
     fit-margin-right="0"
     fit-margin-bottom="0" />
  <metadata
     id="metadata3088">
    <rdf:RDF>
      <cc:Work
         rdf:about="">
        <dc:format>image/svg+xml</dc:format>
        <dc:type
           rdf:resource="http://purl.org/dc/dcmitype/StillImage" />
        <dc:title />
      </cc:Work>
    </rdf:RDF>
  </metadata>
  <g
     inkscape:label="Icons"
     inkscape:groupmode="layer"
     id="layer1"
     transform="translate(-421.18799,-563.45764)"
     style="display:inline">
    <path
       sodipodi:nodetypes="cssacsscsscsscsssc"
       inkscape:connector-curvature="0"
       id="path3948"
       d="m 437.85758,604.55179 c -0.1011,-3.79899 -1.86227,-5.19627 -3.53591,-7.38537 -1.08532,-1.41957 -4.77385,-4.19242 -5.03847,-5.96438 -0.39849,-2.66836 -0.18004,-3.5371 1.02366,-4.4895 1.32049,-1.04481 2.96487,-1.09089 5.05136,0.0398 -0.49354,-3.63286 -3.26928,-6.47089 -3.88893,-7.81345 -1.09047,-2.3627 3.9269,-7.19622 6.4005,-3.96408 l 2.5854,2.88796 1.29024,-2.54458 c 1.46433,-2.88795 5.36408,-2.74709 6.74109,-0.0957 l 1.22864,2.36571 1.69059,-2.29772 c 1.89814,-2.57983 4.77985,-1.81996 5.4061,0.30539 l 1.19504,4.05571 1.61937,-2.83872 c 0.66816,-1.17129 2.74728,-0.90768 4.53135,1.65011 1.52184,2.18181 0.29454,11.24539 -1.8231,14.73388 -2.93211,4.8303 -3.19074,6.0056 -4.31694,11.3549"
       style="fill:#ffffff;fill-opacity:1;stroke:#000000;stroke-width:1.5;stroke-linecap:round;stroke-linejoin:round;stroke-miterlimit:4;stroke-dasharray:none;stroke-opacity:1" />
  </g>
</svg>
