<?xml version="1.0" encoding="UTF-8" standalone="no"?>
<svg
   xmlns:dc="http://purl.org/dc/elements/1.1/"
   xmlns:cc="http://creativecommons.org/ns#"
   xmlns:rdf="http://www.w3.org/1999/02/22-rdf-syntax-ns#"
   xmlns:svg="http://www.w3.org/2000/svg"
   xmlns="http://www.w3.org/2000/svg"
   xmlns:xlink="http://www.w3.org/1999/xlink"
   xmlns:sodipodi="http://sodipodi.sourceforge.net/DTD/sodipodi-0.dtd"
   xmlns:inkscape="http://www.inkscape.org/namespaces/inkscape"
   width="48"
   height="48"
   version="1.1"
   id="svg63"
   sodipodi:docname="tool-zoom-select.svg"
   inkscape:version="0.92.4 (5da689c313, 2019-01-14)">
  <metadata
     id="metadata67">
    <rdf:RDF>
      <cc:Work
         rdf:about="">
        <dc:format>image/svg+xml</dc:format>
        <dc:type
           rdf:resource="http://purl.org/dc/dcmitype/StillImage" />
        <dc:title />
      </cc:Work>
    </rdf:RDF>
  </metadata>
  <sodipodi:namedview
     pagecolor="#ffffff"
     bordercolor="#666666"
     borderopacity="1"
     objecttolerance="10"
     gridtolerance="10"
     guidetolerance="10"
     inkscape:pageopacity="0"
     inkscape:pageshadow="2"
     inkscape:window-width="1850"
     inkscape:window-height="1016"
     id="namedview65"
     showgrid="false"
     inkscape:zoom="1.1944733"
     inkscape:cx="-116.32994"
     inkscape:cy="213.82496"
     inkscape:window-x="70"
     inkscape:window-y="27"
     inkscape:window-maximized="1"
     inkscape:current-layer="svg63" />
  <defs
     id="defs41">
    <linearGradient
       id="k"
       y2="30.6"
       gradientUnits="userSpaceOnUse"
       x2="31.3"
       y1="23.35"
       x1="27.01">
      <stop
         stop-color="#8a8a8a"
         offset="0"
         id="stop2" />
      <stop
         stop-color="#484848"
         offset="1"
         id="stop4" />
    </linearGradient>
    <linearGradient
       id="SVGID_3_"
       y2="55.65"
       gradientUnits="userSpaceOnUse"
       x2="-144.3"
       gradientTransform="matrix(1.335 0 0-1.291 229.6 104.1)"
       y1="52.71"
       x1="-146.9">
      <stop
         stop-color="#7d7d7d"
         offset="0"
         id="stop7" />
      <stop
         stop-color="#b1b1b1"
         offset=".5"
         id="stop9" />
      <stop
         stop-color="#686868"
         offset="1"
         id="stop11" />
    </linearGradient>
    <linearGradient
       id="c"
       y2="25.86"
       gradientUnits="userSpaceOnUse"
       x2="17.83"
       y1="10.73"
       x1="18.81">
      <stop
         stop-color="#fff"
         offset="0"
         id="stop14" />
      <stop
         stop-color="#fff"
         stop-opacity=".22"
         offset=".5"
         id="stop16" />
      <stop
         stop-color="#fff"
         offset="1"
         id="stop18" />
    </linearGradient>
    <radialGradient
       id="r"
       gradientUnits="userSpaceOnUse"
       cy="81.5"
       cx="-171.7"
       gradientTransform="matrix(1.399 0 0-1.399 259.5 136.2)"
       r="8.31">
      <stop
         stop-color="#729fcf"
         stop-opacity=".21"
         offset="0"
         id="stop21" />
      <stop
         stop-color="#729fcf"
         stop-opacity=".68"
         offset="1"
         id="stop23" />
    </radialGradient>
    <radialGradient
       id="b"
       gradientUnits="userSpaceOnUse"
       cy="-511.6"
       cx="-174.5"
       gradientTransform="matrix(1.446 0 0-.362 276.2-145.1)"
       r="16.53">
      <stop
         offset="0"
         id="stop26" />
      <stop
         stop-opacity="0"
         offset="1"
         id="stop28" />
    </radialGradient>
    <radialGradient
       id="g"
       gradientUnits="userSpaceOnUse"
       cy="166.4"
       cx="-296.8"
       gradientTransform="matrix(2.593 0 0-2.252 784.6 385.3)"
       r="6.66">
      <stop
         stop-color="#fff"
         offset="0"
         id="stop31" />
      <stop
         stop-color="#fff"
         stop-opacity=".25"
         offset="1"
         id="stop33" />
    </radialGradient>
    <radialGradient
       id="s"
       gradientUnits="userSpaceOnUse"
       cy="-1674"
       cx="314.9"
       gradientTransform="matrix(.498 0 0-.145-135.8-204.1)"
       r="16.53">
      <stop
         stop-color="#fff"
         offset="0"
         id="stop36" />
      <stop
         stop-color="#fff"
         stop-opacity="0"
         offset="1"
         id="stop38" />
    </radialGradient>
    <linearGradient
       id="linearGradient3829">
      <stop
         id="stop3831"
         offset="0"
         style="stop-color:#204a87;stop-opacity:1;" />
      <stop
         id="stop3833"
         offset="1"
         style="stop-color:#3465a4;stop-opacity:1;" />
    </linearGradient>
    <linearGradient
       y2="732.44354"
       x2="663.88684"
       y1="736.55206"
       x1="663.88684"
       gradientUnits="userSpaceOnUse"
       id="linearGradient3861"
       xlink:href="#linearGradient3829"
       inkscape:collect="always" />
    <linearGradient
       inkscape:collect="always"
       xlink:href="#linearGradient3829"
       id="linearGradient930"
       gradientUnits="userSpaceOnUse"
       x1="663.88684"
       y1="736.55206"
       x2="663.88684"
       y2="732.44354" />
    <linearGradient
       inkscape:collect="always"
       xlink:href="#linearGradient3829"
       id="linearGradient932"
       gradientUnits="userSpaceOnUse"
       x1="663.88684"
       y1="736.55206"
       x2="663.88684"
       y2="732.44354" />
    <linearGradient
       inkscape:collect="always"
       xlink:href="#linearGradient3829"
       id="linearGradient934"
       gradientUnits="userSpaceOnUse"
       x1="663.88684"
       y1="736.55206"
       x2="663.88684"
       y2="732.44354" />
  </defs>
  <ellipse
     rx="8.23"
     ry="2.4"
     cy="38.77"
     cx="20.99"
     fill="url(#s)"
     id="ellipse55" />
  <ellipse
     opacity=".17"
     rx="23.9"
     ry="5.98"
     cy="39.96"
     cx="23.92"
     fill="url(#b)"
     id="ellipse43" />
  <path
     style="fill:none;stroke:#204a87;stroke-width:3;stroke-miterlimit:4;stroke-dasharray:3, 3;stroke-dashoffset:3;stroke-opacity:1"
     d="M 16.5,39 V 16.5 H 42"
     id="rect3815"
     inkscape:connector-curvature="0"
     sodipodi:nodetypes="ccc" />
  <g
     style="stroke-width:0.66666669"
     id="g3887"
     transform="matrix(1.5,0,0,1.5,-980.83026,-1086.7467)">
    <rect
       y="732.4978"
       x="661.88684"
       height="4"
       width="4"
       id="rect3889"
       style="fill:url(#linearGradient930);fill-opacity:1;stroke:none;stroke-width:0.66666669" />
    <rect
       style="fill:#729fcf;fill-opacity:1;stroke:none;stroke-width:0.66666669"
       id="rect3891"
       width="1.5"
       height="1.5"
       x="663.13684"
       y="733.7478" />
  </g>
  <g
     style="stroke-width:0.66666669"
     id="g3851"
     transform="matrix(1.5,0,0,1.5,-952.33026,-1086.7467)">
    <rect
       style="fill:url(#linearGradient932);fill-opacity:1;stroke:none;stroke-width:0.66666669"
       id="rect3817"
       width="4"
       height="4"
       x="661.88684"
       y="732.4978" />
    <rect
       y="733.7478"
       x="663.13684"
       height="1.5"
       width="1.5"
       id="rect3839"
       style="fill:#729fcf;fill-opacity:1;stroke:none;stroke-width:0.66666669" />
  </g>
  <g
     style="stroke-width:0.66666669"
     transform="matrix(1.5,0,0,1.5,-980.83026,-1061.2467)"
     id="g3895">
    <rect
       style="fill:url(#linearGradient3861);fill-opacity:1;stroke:none;stroke-width:0.66666669"
       id="rect3897"
       width="4"
       height="4"
       x="661.88684"
       y="732.4978" />
    <rect
       y="733.7478"
       x="663.13684"
       height="1.5"
       width="1.5"
       id="rect3899"
       style="fill:#729fcf;fill-opacity:1;stroke:none;stroke-width:0.66666669" />
  </g>
  <g
     fill="#dcdcdc"
     id="g49">
    <path
       d="m18.63 3.14c-8.14 0-14.75 6.61-14.75 14.75s6.61 14.74 14.75 14.74c3.48 0 6.55-1.38 9.1-3.4-0.2 1-0.08 2.04 0.76 2.76l10.96 9.53c1.23 1.07 3.09 0.93 4.16-0.3 1.07-1.24 0.93-3.09-0.3-4.16l-10.97-9.53c-0.67-0.58-1.49-0.76-2.3-0.64 1.98-2.52 3.36-5.55 3.36-9 0-8.14-6.6-14.75-14.74-14.75zm-0.08 1.23c7.64 0 13.29 4.79 13.29 13.29 0 8.68-5.81 13.29-13.29 13.29-7.3 0-13.29-5.47-13.29-13.29 0-7.98 5.82-13.29 13.29-13.29z"
       stroke="url(#k)"
       stroke-linecap="round"
       stroke-width="2"
       id="path45" />
    <path
       d="m18.6 3.08c-8.16 0-14.79 6.63-14.79 14.79 0 8.17 6.63 14.8 14.79 14.8 3.49 0 6.58-1.39 9.11-3.42-0.21 1-0.08 2.04 0.75 2.77l11 9.56c1.24 1.07 3.1 0.93 4.18-0.3 1.07-1.24 0.93-3.1-0.31-4.18l-11-9.56c-0.67-0.58-1.49-0.75-2.31-0.64 1.99-2.52 3.38-5.57 3.38-9 0-8.16-6.63-14.79-14.8-14.79m-0.07 3.19c6.28 0 11.38 5.09 11.38 11.38 0 6.28-5.1 11.37-11.38 11.37s-11.38-5.09-11.38-11.37c0-6.29 5.1-11.38 11.38-11.38"
       id="path47" />
  </g>
  <path
     d="m39.51 41.58c-0.48-2.28 1.39-4.81 3.58-4.79l-10.76-9.26c-2.94-0.06-4.27 2.27-3.78 4.6l10.96 9.45"
     fill="url(#SVGID_3_)"
     id="path51" />
  <circle
     cy="17.4"
     stroke="url(#c)"
     cx="18.38"
     r="13.77"
     fill="none"
     id="circle53" />
  <circle
     cy="17.55"
     stroke="#3063a3"
     cx="18.38"
     r="11.62"
     fill="url(#r)"
     id="circle57" />
  <path
     opacity=".83"
     d="m18.2 7.4c-5.21 0-9.43 4.21-9.43 9.42 0 1.51 0.42 2.89 1.05 4.15 1.25 0.46 2.58 0.78 3.99 0.78 6.18 0 11.1-4.86 11.48-10.94-1.73-2.05-4.21-3.41-7.09-3.41"
     fill="url(#g)"
     id="path59" />
  <rect
     opacity="0.43"
     rx="2.468"
     transform="matrix(.7530 .6580 -.6489 .7609 0 0)"
     height="5"
     width="19"
     stroke="#fff"
     y="-.13"
     x="40.5"
     fill="none"
     id="rect61" />
  <path
     style="fill:none;stroke:#204a87;stroke-width:3;stroke-miterlimit:4;stroke-dasharray:3, 3;stroke-dashoffset:3;stroke-opacity:1"
     d="M 42,16.5 V 39 H 16.5"
     id="rect3825"
     inkscape:connector-curvature="0"
     sodipodi:nodetypes="ccc" />
  <g
     style="stroke-width:0.66666669"
     id="g3855"
     transform="matrix(1.5,0,0,1.5,-952.33026,-1061.2467)">
    <rect
       y="732.4978"
       x="661.88684"
       height="4"
       width="4"
       id="rect3857"
       style="fill:url(#linearGradient934);fill-opacity:1;stroke:none;stroke-width:0.66666669" />
    <rect
       style="fill:#729fcf;fill-opacity:1;stroke:none;stroke-width:0.66666669"
       id="rect3859"
       width="1.5"
       height="1.5"
       x="663.13684"
       y="733.7478" />
  </g>
</svg>
