<?xml version="1.0" encoding="UTF-8" standalone="no"?>
<svg
   xmlns:dc="http://purl.org/dc/elements/1.1/"
   xmlns:cc="http://web.resource.org/cc/"
   xmlns:rdf="http://www.w3.org/1999/02/22-rdf-syntax-ns#"
   xmlns:svg="http://www.w3.org/2000/svg"
   xmlns="http://www.w3.org/2000/svg"
   xmlns:sodipodi="http://sodipodi.sourceforge.net/DTD/sodipodi-0.dtd"
   xmlns:inkscape="http://www.inkscape.org/namespaces/inkscape"
   width="723.85516"
   height="169.53056"
   id="svg2"
   sodipodi:version="0.32"
   inkscape:version="0.45"
   sodipodi:docname="miktex-logo-bw.svg"
   inkscape:output_extension="org.inkscape.output.svg.inkscape"
   version="1.0"
   sodipodi:modified="true">
  <metadata
     id="metadata31">
    <rdf:RDF>
      <cc:Work
         rdf:about="">
        <dc:format>image/svg+xml</dc:format>
        <dc:type
           rdf:resource="http://purl.org/dc/dcmitype/StillImage" />
      </cc:Work>
    </rdf:RDF>
  </metadata>
  <defs
     id="defs29" />
  <sodipodi:namedview
     inkscape:window-height="480"
     inkscape:window-width="640"
     inkscape:pageshadow="2"
     inkscape:pageopacity="0.0"
     guidetolerance="10.0"
     gridtolerance="10.0"
     objecttolerance="10.0"
     borderopacity="1.0"
     bordercolor="#666666"
     pagecolor="#ffffff"
     id="base" />
  <g
     transform="translate(0,3.099607)"
     style="fill:#000000;fill-rule:evenodd;stroke:none;stroke-width:0.00028346pt;stroke-linecap:butt;stroke-linejoin:miter;stroke-dasharray:none"
     id="g4">
    <path
       d="M 91.2979,87.2989 C 91.2979,87.2989 127.264,0 127.264,0 C 127.264,0 181.163,0 181.163,0 C 181.163,0 181.163,3.63379 181.163,3.63379 C 181.163,3.63379 176.863,3.63379 176.863,3.63379 C 172.964,3.63379 169.83,4.30078 167.497,5.66699 C 165.864,6.60056 164.563,8.13376 163.563,10.2666 C 162.864,11.834 162.497,15.9004 162.497,22.4668 C 162.497,22.4668 162.497,109.765 162.497,109.765 C 162.497,116.532 162.864,120.765 163.563,122.466 C 164.297,124.165 165.763,125.632 167.964,126.898 C 170.197,128.198 173.13,128.832 176.863,128.832 C 176.863,128.832 181.163,128.832 181.163,128.832 C 181.163,128.832 181.163,132.431 181.163,132.431 C 181.163,132.431 111.998,132.431 111.998,132.431 C 111.998,132.431 111.998,128.832 111.998,128.832 C 111.998,128.832 116.298,128.832 116.298,128.832 C 120.231,128.832 123.331,128.132 125.698,126.765 C 127.298,125.865 128.631,124.299 129.597,122.065 C 130.298,120.532 130.664,116.432 130.664,109.765 C 130.664,109.765 130.664,11.6338 130.664,11.6338 C 130.664,11.6338 79.8985,132.431 79.8985,132.431 C 79.8985,132.431 77.5322,132.431 77.5322,132.431 C 77.5322,132.431 25.9658,12.5 25.9658,12.5 C 25.9658,12.5 25.9658,105.765 25.9658,105.765 C 25.9658,112.265 26.1328,116.299 26.4658,117.799 C 27.2998,121.032 29.166,123.698 31.999,125.731 C 34.8321,127.799 39.2656,128.832 45.3321,128.832 C 45.3321,128.832 45.3321,132.431 45.3321,132.431 C 45.3321,132.431 0,132.431 0,132.431 C 0,132.431 0,128.832 0,128.832 C 0,128.832 1.36621,128.832 1.36621,128.832 C 4.29978,128.898 7.03318,128.398 9.56638,127.398 C 12.0996,126.398 14.0332,125.032 15.333,123.365 C 16.6328,121.665 17.6328,119.265 18.3662,116.232 C 18.499,115.499 18.5664,112.198 18.5664,106.265 C 18.5664,106.265 18.5664,22.4668 18.5664,22.4668 C 18.5664,15.7666 18.1992,11.6006 17.499,9.93356 C 16.7656,8.26656 15.2998,6.80076 13.0996,5.53418 C 10.8662,4.2666 7.89938,3.63379 4.2002,3.63379 C 4.2002,3.63379 0,3.63379 0,3.63379 C 0,3.63379 0,0 0,0 C 0,0 54.0987,0 54.0987,0 C 54.0987,0 91.2979,87.2989 91.2979,87.2989 z "
       id="path6" />
  </g>
  <g
     transform="translate(176.89718,0)"
     style="fill:#000000;fill-rule:evenodd;stroke:none;stroke-width:0.00028346pt;stroke-linecap:butt;stroke-linejoin:miter;stroke-dasharray:none"
     id="g8">
    <path
       d="M 24.6,0 C 28.833,0 32.433,1.4668 35.367,4.4336 C 38.266,7.40039 39.733,10.9668 39.733,15.1328 C 39.733,19.2998 38.266,22.833 35.299,25.7666 C 32.333,28.6993 28.766,30.166 24.6,30.166 C 20.433,30.166 16.9,28.6993 13.966,25.7666 C 11.033,22.833 9.567,19.2998 9.567,15.1328 C 9.567,10.9668 11.033,7.40039 13.966,4.4336 C 16.9,1.4668 20.433,0 24.6,0 z M 38.266,44.2334 C 38.266,44.2334 38.266,116.599 38.266,116.599 C 38.266,123.031 39.033,127.165 40.533,128.932 C 42.033,130.732 44.966,131.765 49.332,132.031 C 49.332,132.031 49.332,135.531 49.332,135.531 C 49.332,135.531 0,135.531 0,135.531 C 0,135.531 0,132.031 0,132.031 C 4.033,131.899 7.033,130.698 9,128.498 C 10.3,126.998 10.933,123.031 10.933,116.599 C 10.933,116.599 10.933,63.2657 10.933,63.2657 C 10.933,56.833 10.2,52.6993 8.7,50.8994 C 7.2,49.1328 4.3,48.0996 0,47.833 C 0,47.833 0,44.2334 0,44.2334 C 0,44.2334 38.266,44.2334 38.266,44.2334 z "
       id="path10" />
  </g>
  <g
     transform="translate(222.89618,3.099607)"
     style="fill:#000000;fill-rule:evenodd;stroke:none;stroke-width:0.00028346pt;stroke-linecap:butt;stroke-linejoin:miter;stroke-dasharray:none"
     id="g12">
    <path
       d="M 78.799,50.7002 C 78.799,50.7002 125.365,108.999 125.365,108.999 C 131.965,117.198 137.631,122.765 142.365,125.698 C 145.831,127.765 149.465,128.832 153.298,128.832 C 153.298,128.832 153.298,132.431 153.298,132.431 C 153.298,132.431 84.366,132.431 84.366,132.431 C 84.366,132.431 84.366,128.832 84.366,128.832 C 88.733,128.431 91.533,127.731 92.799,126.765 C 94.099,125.799 94.732,124.598 94.732,123.165 C 94.732,120.431 91.732,115.265 85.733,107.732 C 85.733,107.732 55.366,69.5332 55.366,69.5332 C 55.366,69.5332 50.466,73.6329 50.466,73.6329 C 50.466,73.6329 50.466,109.765 50.466,109.765 C 50.466,116.665 50.867,120.965 51.666,122.665 C 52.433,124.365 53.933,125.799 56.133,126.998 C 58.367,128.231 61.9,128.832 66.799,128.832 C 66.799,128.832 66.799,132.431 66.799,132.431 C 66.799,132.431 0,132.431 0,132.431 C 0,132.431 0,128.832 0,128.832 C 0,128.832 4.4,128.832 4.4,128.832 C 8.234,128.832 11.333,128.132 13.666,126.765 C 15.367,125.865 16.666,124.299 17.567,122.065 C 18.3,120.532 18.633,116.432 18.633,109.765 C 18.633,109.765 18.633,22.667 18.633,22.667 C 18.633,15.9004 18.3,11.667 17.567,9.96676 C 16.867,8.26656 15.4,6.80076 13.234,5.53418 C 11.033,4.2666 8.1,3.63379 4.4,3.63379 C 4.4,3.63379 0,3.63379 0,3.63379 C 0,3.63379 0,0 0,0 C 0,0 65.9,0 65.9,0 C 65.9,0 65.9,3.63379 65.9,3.63379 C 61.433,3.63379 57.999,4.2666 55.666,5.56739 C 53.966,6.49996 52.633,8.03316 51.666,10.167 C 50.867,11.8008 50.466,15.9668 50.466,22.667 C 50.466,22.667 50.466,63.8663 50.466,63.8663 C 50.466,63.8663 99.599,24.1338 99.599,24.1338 C 106.432,18.6006 109.866,14.167 109.866,10.8672 C 109.866,8.36716 108.465,6.43356 105.665,5 C 104.232,4.2666 100.665,3.83399 94.998,3.63379 C 94.998,3.63379 94.998,0 94.998,0 C 94.998,0 146.664,0 146.664,0 C 146.664,0 146.664,3.63379 146.664,3.63379 C 142.032,3.9668 138.431,4.76661 135.798,6.10056 C 133.131,7.43356 127.065,11.9668 117.565,19.6338 C 117.565,19.6338 78.799,50.7002 78.799,50.7002 z "
       id="path14" />
  </g>
  <g
     transform="translate(363.22718,3.099607)"
     style="fill:#000000;fill-rule:evenodd;stroke:none;stroke-width:0.00028346pt;stroke-linecap:butt;stroke-linejoin:miter;stroke-dasharray:none"
     id="g16">
    <path
       d="M 118.932,0 C 118.932,0 118.932,35.8663 118.932,35.8663 C 118.932,35.8663 115.432,35.8663 115.432,35.8663 C 113.332,27.5664 111.033,21.6338 108.499,18.0332 C 105.966,14.4004 102.465,11.5332 98.033,9.40036 C 95.566,8.20016 91.233,7.63376 85.066,7.63376 C 85.066,7.63376 75.2,7.63376 75.2,7.63376 C 75.2,7.63376 75.2,109.765 75.2,109.765 C 75.2,116.532 75.566,120.765 76.299,122.466 C 77.066,124.165 78.533,125.632 80.7,126.898 C 82.9,128.198 85.866,128.832 89.632,128.832 C 89.632,128.832 94.033,128.832 94.033,128.832 C 94.033,128.832 94.033,132.431 94.033,132.431 C 94.033,132.431 24.701,132.431 24.701,132.431 C 24.701,132.431 24.701,128.832 24.701,128.832 C 24.701,128.832 29.1,128.832 29.1,128.832 C 32.933,128.832 36.034,128.132 38.367,126.765 C 40.067,125.865 41.4,124.299 42.367,122.065 C 43.1,120.532 43.466,116.432 43.466,109.765 C 43.466,109.765 43.466,7.63376 43.466,7.63376 C 43.466,7.63376 33.867,7.63376 33.867,7.63376 C 24.967,7.63376 18.467,9.49996 14.434,13.3008 C 8.767,18.5664 5.201,26.0997 3.701,35.8663 C 3.701,35.8663 0,35.8663 0,35.8663 C 0,35.8663 0,0 0,0 C 0,0 118.932,0 118.932,0 z "
       id="path18" />
  </g>
  <g
     transform="translate(473.39218,37.099567)"
     style="fill:#000000;fill-rule:evenodd;stroke:none;stroke-width:0.00028346pt;stroke-linecap:butt;stroke-linejoin:miter;stroke-dasharray:none"
     id="g20">
    <path
       d="M 50.499,7.6338 C 50.499,7.6338 50.499,61.5323 50.499,61.5323 C 50.499,61.5323 53.133,61.5323 53.133,61.5323 C 61.533,61.5323 67.599,58.8995 71.4,53.6329 C 75.166,48.3663 77.566,40.5664 78.632,30.2998 C 78.632,30.2998 82.332,30.2998 82.332,30.2998 C 82.332,30.2998 82.332,99.6323 82.332,99.6323 C 82.332,99.6323 78.632,99.6323 78.632,99.6323 C 77.832,92.0653 76.2,85.8983 73.7,81.0653 C 71.166,76.2323 68.266,72.9993 64.933,71.3323 C 61.633,69.6993 56.799,68.8663 50.499,68.8663 C 50.499,68.8663 50.499,106.165 50.499,106.165 C 50.499,113.465 50.799,117.898 51.433,119.531 C 52.033,121.165 53.2,122.498 54.9,123.531 C 56.567,124.598 59.299,125.098 63.1,125.098 C 63.1,125.098 70.999,125.098 70.999,125.098 C 83.366,125.098 93.266,122.231 100.732,116.498 C 108.199,110.798 113.533,102.065 116.799,90.3323 C 116.799,90.3323 120.399,90.3323 120.399,90.3323 C 120.399,90.3323 114.465,132.431 114.465,132.431 C 114.465,132.431 0,132.431 0,132.431 C 0,132.431 0,128.831 0,128.831 C 0,128.831 4.401,128.831 4.401,128.831 C 8.234,128.831 11.333,128.132 13.667,126.764 C 15.367,125.865 16.666,124.298 17.567,122.065 C 18.3,120.531 18.666,116.431 18.666,109.764 C 18.666,109.764 18.666,22.6661 18.666,22.6661 C 18.666,16.667 18.5,13 18.166,11.6329 C 17.534,9.3663 16.3,7.5997 14.567,6.3672 C 12.067,4.5332 8.701,3.6338 4.401,3.6338 C 4.401,3.6338 0,3.6338 0,3.6338 C 0,3.6338 0,0 0,0 C 0,0 110.832,0 110.832,0 C 110.832,0 110.832,39.1661 110.832,39.1661 C 110.832,39.1661 107.132,39.1661 107.132,39.1661 C 105.232,29.5997 102.599,22.7334 99.165,18.5665 C 95.766,14.3995 90.932,11.3331 84.665,9.3995 C 81.033,8.2002 74.2,7.6338 64.166,7.6338 C 64.166,7.6338 50.499,7.6338 50.499,7.6338 z "
       id="path22" />
  </g>
  <g
     transform="translate(582.15718,3.099607)"
     style="fill:#000000;fill-rule:evenodd;stroke:none;stroke-width:0.00028346pt;stroke-linecap:butt;stroke-linejoin:miter;stroke-dasharray:none"
     id="g24">
    <path
       d="M 83.1,54.7998 C 83.1,54.7998 119.632,108.999 119.632,108.999 C 125.698,117.966 129.999,123.431 132.565,125.365 C 135.132,127.265 138.198,128.431 141.698,128.832 C 141.698,128.832 141.698,132.431 141.698,132.431 C 141.698,132.431 77.133,132.431 77.133,132.431 C 77.133,132.431 77.133,128.832 77.133,128.832 C 82.3,128.431 85.6,127.632 87.1,126.465 C 88.6,125.299 89.366,123.865 89.366,122.165 C 89.366,120.999 89.133,119.965 88.666,119.065 C 87.766,117.098 85.466,113.466 81.833,108.098 C 81.833,108.098 62.5,79.4991 62.5,79.4991 C 62.5,79.4991 42.3,104.199 42.3,104.199 C 36.233,111.698 33.2,116.765 33.2,119.431 C 33.2,121.332 34,123.098 35.533,124.731 C 37.1,126.332 39.434,127.532 42.467,128.231 C 43.833,128.632 46.633,128.832 50.866,128.832 C 50.866,128.832 50.866,132.431 50.866,132.431 C 50.866,132.431 0,132.431 0,132.431 C 0,132.431 0,128.832 0,128.832 C 5.801,127.965 10.367,126.398 13.667,124.132 C 18.033,121.132 24.134,114.898 31.934,105.365 C 31.934,105.365 58.199,73.3663 58.199,73.3663 C 58.199,73.3663 24.5,23.8331 24.5,23.8331 C 18.967,15.7002 15.834,11.167 15.034,10.2666 C 13.267,8.13376 11.567,6.60056 9.867,5.66699 C 8.167,4.76661 5.834,4.06739 2.834,3.63379 C 2.834,3.63379 2.834,0 2.834,0 C 2.834,0 68.566,0 68.566,0 C 68.566,0 68.566,3.63379 68.566,3.63379 C 68.566,3.63379 65.232,3.63379 65.232,3.63379 C 61.466,3.63379 58.833,4.23438 57.333,5.4336 C 55.833,6.63376 55.066,8.13376 55.066,9.96676 C 55.066,11.4004 55.3,12.6338 55.767,13.667 C 55.767,13.667 62.5,23.8331 62.5,23.8331 C 62.5,23.8331 78.899,48.8331 78.899,48.8331 C 78.899,48.8331 92.865,31.7334 92.865,31.7334 C 100.032,22.9668 103.599,16.7998 103.599,13.3008 C 103.599,11.5332 103.099,9.90036 102.099,8.40036 C 101.099,6.90036 99.633,5.7334 97.766,4.90039 C 95.866,4.03418 92.933,3.63379 88.966,3.63379 C 88.966,3.63379 88.966,0 88.966,0 C 88.966,0 137.698,0 137.698,0 C 137.698,0 137.698,3.63379 137.698,3.63379 C 133.865,3.7002 130.765,4.16699 128.432,5.03418 C 126.065,5.9336 123.565,7.56736 120.898,9.96676 C 119.199,11.5332 114.965,16.4004 108.199,24.5332 C 108.199,24.5332 83.1,54.7998 83.1,54.7998 z "
       id="path26" />
  </g>
</svg>
